# Blender v2.75 (sub 0) OBJ File: 'house.blend'
# www.blender.org
mtllib house.mtl
o LowPoly
v -3.801330 0.004681 2.210444
v -3.801330 0.004681 -2.245037
v 4.154069 0.004681 -2.245037
v 4.154069 0.004681 2.210444
v -3.801330 0.464681 2.210444
v -3.801330 0.464681 -2.245037
v 4.154069 0.464681 -2.245037
v 4.154069 0.464681 2.210444
v -1.500903 4.563426 -0.832135
v -1.500903 3.754391 -0.832135
v -1.500903 4.298854 -0.937812
v -1.500903 4.452946 -0.937812
v -1.500903 4.452946 -1.241191
v -1.500903 4.555136 -1.334262
v -1.500903 3.495850 -1.334262
v -1.500903 4.298854 -1.241191
v -2.167675 4.563426 -0.832135
v -2.167675 3.754391 -0.832135
v -2.042542 4.298854 -0.832135
v -2.042542 4.452946 -0.832135
v -1.642542 4.452946 -0.832135
v -1.642542 4.298854 -0.832135
v -2.167675 3.495850 -1.334262
v -2.167675 4.555136 -1.334262
v -2.042542 4.298854 -1.334262
v -1.642542 4.298854 -1.334262
v -1.642542 4.452946 -1.334262
v -2.042542 4.452946 -1.334262
v -2.167675 4.298854 -0.937812
v -2.167675 4.298854 -1.241191
v -2.167675 4.452946 -1.241191
v -2.167675 4.452946 -0.937812
v -2.042542 4.452946 -1.241191
v -2.042542 4.298854 -1.241191
v -1.642542 4.298854 -1.241191
v -1.642542 4.452946 -1.241191
v -2.042542 4.298854 -0.937812
v -1.642542 4.298854 -0.937812
v -2.042542 4.452946 -0.937812
v -1.642542 4.452946 -0.937812
v 0.700409 4.549561 -0.845466
v 0.674473 3.748191 -0.844176
v 0.700409 4.284989 -0.953497
v 0.700409 4.439081 -0.953497
v 0.700409 4.439081 -1.263636
v 0.700409 4.541271 -1.358781
v 0.674473 3.477423 -1.359699
v 0.700409 4.284989 -1.263636
v 0.033636 4.549561 -0.845466
v 0.071412 3.748191 -0.844176
v 0.158769 4.284989 -0.845466
v 0.158769 4.439081 -0.845466
v 0.558769 4.439081 -0.845466
v 0.558769 4.284989 -0.845466
v 0.071412 3.477423 -1.359699
v 0.033636 4.541271 -1.358781
v 0.158769 4.284989 -1.358781
v 0.558769 4.284989 -1.358781
v 0.558769 4.439081 -1.358781
v 0.158769 4.439081 -1.358781
v 0.033636 4.284989 -0.953497
v 0.033636 4.284989 -1.263636
v 0.033636 4.439081 -1.263636
v 0.033636 4.439081 -0.953497
v 0.158769 4.439081 -1.263636
v 0.158769 4.284989 -1.263636
v 0.558769 4.284989 -1.263636
v 0.558769 4.439081 -1.263636
v 0.158769 4.284989 -0.953497
v 0.558769 4.284989 -0.953497
v 0.158769 4.439081 -0.953497
v 0.558769 4.439081 -0.953497
v 4.076248 0.472219 -2.178356
v 4.076248 0.472219 2.112799
v -3.741651 0.472219 2.112798
v -3.741649 0.472219 -2.178356
v 4.076248 0.472219 -0.032779
v -3.741650 0.472219 -0.032779
v 4.076402 2.884497 -2.178355
v 4.076246 2.883142 2.112799
v -3.741652 2.883142 2.112798
v -3.741650 2.883142 -2.178356
v 4.076248 3.913255 -0.032778
v -3.741651 3.913255 -0.032779
v 4.398487 2.706913 -2.543415
v 4.398483 2.722696 2.464002
v -4.086443 2.722696 2.464001
v -4.086442 2.706913 -2.543416
v 4.398485 3.913255 -0.032778
v -4.086443 3.913255 -0.032779
v 3.869748 0.472219 2.112799
v -3.535149 0.472219 2.112798
v 3.869744 2.883142 2.112799
v -3.535152 2.883142 2.112798
v -3.741651 0.472219 1.895228
v -3.742148 2.984391 1.907320
v -3.741649 0.472219 -1.951281
v -3.741650 2.981137 -1.974245
v -3.505259 2.883142 -2.178356
v -3.528610 0.472219 -2.178356
v 3.851569 0.472219 -2.178356
v 3.826944 2.883142 -2.178355
v 4.076250 3.002182 -1.930411
v 4.076248 0.472219 -1.893728
v 4.076246 2.990674 1.888824
v 4.076248 0.472219 1.869855
v 4.076248 0.472219 -2.452377
v 4.076248 0.472219 2.386820
v -3.741651 0.472219 2.386820
v -3.741649 0.472219 -2.452378
v 4.076250 2.751968 -2.452377
v 4.076246 2.760366 2.386821
v -3.741652 2.760366 2.386819
v -3.741650 2.751968 -2.452377
v 3.869748 0.472219 2.386820
v -3.535149 0.472219 2.386820
v 3.869744 2.760366 2.386820
v -3.535152 2.760366 2.386820
v -3.505259 2.751968 -2.452377
v -3.528610 0.472219 -2.452378
v 3.851569 0.472219 -2.452377
v 3.826944 2.751968 -2.452377
v 4.319229 0.472219 -2.178356
v 4.319229 0.472219 2.112799
v -3.984632 0.472219 2.112798
v -3.984629 0.472219 -2.178356
v 4.319231 2.883142 -2.178355
v 4.319226 2.883142 2.112799
v -3.984632 2.883142 2.112798
v -3.984630 2.883142 -2.178356
v -3.984632 0.472219 1.895228
v -3.985129 2.984391 1.907320
v -3.984629 0.472219 -1.951281
v -3.984630 2.981137 -1.974245
v 4.319230 3.002182 -1.930411
v 4.319229 0.472219 -1.893728
v 4.319227 2.990674 1.888824
v 4.319229 0.472219 1.869855
v 0.741402 0.472219 2.112799
v -0.406806 0.472219 2.112798
v 0.741400 2.883142 2.112799
v -0.406807 2.883142 2.112799
v 0.741402 0.568183 2.112799
v -0.406806 0.568183 2.112799
v 0.741401 2.631181 2.112799
v -0.406807 2.631181 2.112799
v 0.741402 0.568183 1.978167
v -0.406806 0.568183 1.978166
v 0.741401 2.631181 1.978167
v -0.406806 2.631181 1.978167
v -2.167675 3.754391 -0.832135
v -2.167675 3.495850 -1.334262
v -1.500903 3.754391 -0.832135
v -1.500903 3.495850 -1.334262
v -0.554005 0.036286 2.907384
v -0.554005 0.036286 2.118037
v 0.870755 0.036286 2.118037
v 0.870755 0.036286 2.907384
v -0.554005 0.496286 2.907384
v -0.554005 0.496286 2.118037
v 0.870755 0.496286 2.118037
v 0.870755 0.496286 2.907384
v -0.554005 0.266286 2.907384
v -0.554005 0.266286 2.118037
v 0.870755 0.266286 2.118037
v 0.870755 0.266286 2.907384
v -0.554005 0.036286 3.229879
v 0.870755 0.036286 3.229879
v -0.554005 0.266286 3.229879
v 0.870755 0.266286 3.229879
v 0.111035 4.161851 -0.030892
v 0.155873 2.869147 -2.541528
v 4.398333 2.884931 2.465889
v -4.086593 2.884931 2.465889
v -4.086593 4.161851 -0.030892
v -4.086591 2.869147 -2.541529
v 4.398335 4.161851 -0.030891
v 4.398337 2.869147 -2.541528
vt 0.026828 0.936458
vt 0.001198 0.936458
vt 0.001198 0.688205
vt 0.275080 0.244944
vt 0.300711 0.244944
vt 0.300711 0.688205
vt 0.026828 0.244944
vt 0.001198 0.244944
vt 0.001198 -0.003310
vt 0.026828 0.688205
vt 0.275080 0.688205
vt 0.846455 0.398040
vt 0.789023 0.398040
vt 0.802918 0.392994
vt 0.788573 0.370815
vt 0.802918 0.363135
vt 0.832438 0.370815
vt 0.846455 0.434191
vt 0.802918 0.427407
vt 0.802918 0.405719
vt 0.761345 0.370815
vt 0.761345 0.334663
vt 0.846456 0.307439
vt 0.832438 0.334664
vt 0.802918 0.312485
vt 0.785350 0.428675
vt 0.780432 0.428675
vt 0.780432 0.420532
vt 0.785168 0.412556
vt 0.780195 0.412556
vt 0.780195 0.391181
vt 0.773820 0.420532
vt 0.786348 0.324768
vt 0.781374 0.324768
vt 0.781374 0.303393
vt 0.786702 0.382699
vt 0.781632 0.382699
vt 0.781632 0.374304
vt 0.781374 0.296265
vt 0.765162 0.303393
vt 0.763983 0.419684
vt 0.763983 0.412556
vt 0.773915 0.374304
vt 0.758336 0.391181
vt 0.763983 0.391181
vt 0.763983 0.384053
vt 0.780195 0.384053
vt 0.770571 0.428710
vt 0.763902 0.428710
vt 0.763902 0.420497
vt 0.759515 0.303393
vt 0.765162 0.324768
vt 0.765162 0.331896
vt 0.758270 0.420497
vt 0.758114 0.382587
vt 0.763818 0.382587
vt 0.763818 0.374270
vt 0.771463 0.374270
vt 0.794563 0.405719
vt 0.794563 0.427407
vt 0.789023 0.434191
vt 0.794563 0.376545
vt 0.802918 0.376545
vt 0.788573 0.334663
vt 0.794563 0.341448
vt 0.794563 0.363135
vt 0.802918 0.341448
vt 0.794563 0.328934
vt 0.802918 0.328934
vt 0.789023 0.307439
vt 0.794563 0.312485
vt 0.780195 0.419684
vt 0.958465 0.506673
vt 0.962988 0.526881
vt 0.942404 0.520914
vt 0.553190 0.852685
vt 0.568457 0.852841
vt 0.567156 0.979865
vt 0.674840 0.048467
vt 0.669504 0.029581
vt 0.690900 0.034226
vt 0.930361 0.520943
vt 0.816652 0.506673
vt 0.930361 0.506702
vt 0.910475 0.710631
vt 0.804743 0.761394
vt 0.804743 0.569665
vt 0.913791 0.920786
vt 0.805664 0.972483
vt 0.805767 0.780754
vt 0.607521 0.546060
vt 0.468018 0.617646
vt 0.468018 0.602060
vt 0.065451 0.697250
vt 0.065451 0.831582
vt 0.050183 0.824742
vt 0.958965 0.710778
vt 0.958965 0.569798
vt 0.972503 0.569798
vt 0.697516 0.920489
vt 0.677708 0.569199
vt 0.677708 0.703531
vt 0.662440 0.696691
vt 0.103739 0.987523
vt 0.102367 0.853190
vt 0.513578 0.853190
vt 0.531861 0.832892
vt 0.531861 0.698560
vt 0.545400 0.698560
vt 0.697674 0.709989
vt 0.035322 0.981008
vt 0.036076 0.853987
vt 0.048595 0.854061
vt 0.038677 0.824742
vt 0.038677 0.697250
vt 0.582126 0.826044
vt 0.570620 0.826044
vt 0.570620 0.698552
vt 0.580327 0.852841
vt 0.580327 0.979865
vt 0.930835 0.780558
vt 0.946104 0.780558
vt 0.946103 0.908050
vt 0.927770 0.569147
vt 0.943038 0.569147
vt 0.943038 0.696171
vt 0.063862 0.853987
vt 0.064516 0.988325
vt 0.049213 0.981091
vt 0.555352 0.698552
vt 0.682834 0.781240
vt 0.682834 0.915573
vt 0.667566 0.908264
vt 0.630690 0.567439
vt 0.630690 0.707767
vt 0.618166 0.701869
vt 0.642314 0.782789
vt 0.642313 0.922588
vt 0.630891 0.917232
vt 0.985835 0.916474
vt 0.974360 0.922062
vt 0.974333 0.782087
vt 0.986413 0.704346
vt 0.972504 0.710778
vt 0.958465 0.048467
vt 0.942405 0.048467
vt 0.942405 0.034226
vt 0.644229 0.707767
vt 0.091097 0.832892
vt 0.077559 0.832892
vt 0.077559 0.698560
vt 0.087616 0.853745
vt 0.087616 0.988077
vt 0.074077 0.988077
vt 0.960822 0.922062
vt 0.960795 0.782086
vt 0.527488 0.852777
vt 0.541026 0.852777
vt 0.541026 0.987109
vt 0.655852 0.922588
vt 0.518072 0.833348
vt 0.343765 0.833347
vt 0.343765 0.819309
vt 0.343765 0.704361
vt 0.279788 0.704361
vt 0.279788 0.699014
vt 0.848211 0.238267
vt 0.840710 0.238267
vt 0.840710 0.123320
vt 0.279788 0.833347
vt 0.279788 0.819309
vt 0.105483 0.833347
vt 0.776734 0.123320
vt 0.769232 0.123320
vt 0.776734 0.238267
vt 0.776737 0.115803
vt 0.840714 0.115834
vt 0.840710 0.245768
vt 0.776733 0.245768
vt 0.973033 0.510304
vt 0.983808 0.273927
vt 0.983808 0.510304
vt 0.816652 0.048467
vt 0.705432 0.048467
vt 0.705432 0.034226
vt 0.674840 0.492818
vt 0.674840 0.063079
vt 0.690900 0.063079
vt 0.690900 0.520914
vt 0.669504 0.526881
vt 0.674840 0.506673
vt 0.702863 0.520914
vt 0.816652 0.526881
vt 0.942404 0.243922
vt 0.942404 0.060570
vt 0.958465 0.060570
vt 0.958465 0.494570
vt 0.962988 0.029581
vt 0.929277 0.034226
vt 0.816652 0.029581
vt 0.105484 0.699015
vt 0.942405 0.494570
vt 0.942404 0.311218
vt 0.343765 0.699014
vt 0.518072 0.699014
vt 0.200419 0.062106
vt 0.213234 0.062106
vt 0.213234 0.106087
vt 0.095364 0.106087
vt 0.082549 0.106087
vt 0.082549 0.062106
vt 0.187603 0.118902
vt 0.187603 0.136871
vt 0.108218 0.136871
vt 0.108218 0.062106
vt 0.187603 0.062106
vt 0.187603 0.106087
vt 0.200419 0.106087
vt 0.108179 0.106087
vt 0.095364 0.062106
vt 0.108218 0.118902
vt 0.187603 0.149686
vt 0.108218 0.149686
vt 0.213234 0.124056
vt 0.200419 0.124056
vt 0.095364 0.124056
vt 0.082549 0.124056
vt 0.973033 0.037550
vt 0.983809 0.037550
vt 0.644240 0.039974
vt 0.644240 0.517297
vt 0.486481 0.285730
vt 0.328515 0.546060
vt 0.328515 0.535286
vt 0.486480 0.517297
vt 0.327621 0.517300
vt 0.402762 0.308860
vt 0.486481 0.039974
vt 0.436874 0.149100
vt 0.405102 0.148984
vt 0.607521 0.535286
vt 0.402887 0.274935
vt 0.327621 0.278638
vt 0.404964 0.186492
vt 0.327621 0.039976
vt 0.436735 0.186610
vt 0.435520 0.308982
vt 0.435645 0.275057
vt 0.026828 -0.003310
vt 0.794563 0.392994
vt 0.785350 0.420532
vt 0.785168 0.391181
vt 0.773820 0.428675
vt 0.786348 0.303393
vt 0.786702 0.374304
vt 0.765162 0.296265
vt 0.773915 0.382699
vt 0.758336 0.412556
vt 0.770571 0.420497
vt 0.759515 0.324768
vt 0.781374 0.331896
vt 0.758270 0.428710
vt 0.758114 0.374270
vt 0.771463 0.382587
vt 0.942405 0.506673
vt 0.551813 0.987016
vt 0.690900 0.048467
vt 0.908431 0.569665
vt 0.913192 0.780812
vt 0.050183 0.697250
vt 0.698871 0.780697
vt 0.662440 0.569199
vt 0.512277 0.987523
vt 0.545400 0.832892
vt 0.698731 0.569665
vt 0.582126 0.698552
vt 0.930835 0.914890
vt 0.927770 0.703480
vt 0.555352 0.832884
vt 0.667566 0.781240
vt 0.617154 0.567541
vt 0.629663 0.782905
vt 0.986455 0.782143
vt 0.988361 0.570028
vt 0.644229 0.567439
vt 0.091097 0.698560
vt 0.074077 0.853745
vt 0.527488 0.987109
vt 0.655853 0.782789
vt 0.848211 0.123320
vt 0.769232 0.238267
vt 0.690900 0.492818
vt 0.690900 0.506673
vt 0.702863 0.506673
vt 0.929277 0.048467
vn -1.000000 0.000000 0.000000
vn 0.000000 0.000000 -1.000000
vn 1.000000 0.000000 0.000000
vn 0.000000 0.000000 1.000000
vn 0.000000 1.000000 0.000000
vn 0.000000 0.999900 -0.016500
vn 0.000000 -1.000000 0.000000
vn 0.997600 -0.024300 -0.065400
vn -0.003200 0.001700 1.000000
vn 0.000000 0.001100 -1.000000
vn 0.000000 0.999900 -0.016100
vn -0.998400 -0.049800 0.026200
vn -0.000600 0.000900 -1.000000
vn 0.996400 -0.032100 0.078700
vn 0.006800 -0.910300 -0.413900
vn 0.999900 -0.010200 0.000000
vn -0.003300 -0.900800 0.434200
vn -0.109500 -0.891700 -0.439100
vn 0.000000 -0.902000 -0.431800
vn -1.000000 -0.000000 -0.000300
vn -1.000000 -0.000600 -0.000300
vn 0.000000 0.014500 0.999900
vn -0.999900 -0.010200 0.004900
vn -1.000000 -0.000200 0.002300
vn 0.000000 -0.912600 -0.408900
vn 0.000000 0.007500 -1.000000
vn 0.000000 0.004800 -1.000000
vn 0.000000 0.009200 1.000000
vn 0.000000 0.011600 -0.999900
vn 0.000000 -0.901500 0.432800
vn -0.010900 -0.901400 0.432800
vn -0.000000 -0.902000 0.431800
vn 0.003100 -0.900900 0.434000
vn 0.000000 -0.896200 0.443600
vn 0.008500 -0.901500 0.432800
vn 0.000000 -0.898700 -0.438600
vn 0.092500 -0.897600 -0.431000
vn 0.000000 -0.901500 -0.432800
vn -0.000000 -0.011600 0.999900
vn -0.000000 0.890300 0.455300
vn 1.000000 0.000900 0.000400
vn -0.000100 0.889100 -0.457800
vn -0.002400 0.889100 -0.457800
vn 1.000000 0.000900 -0.000400
vn 0.003000 0.889200 -0.457500
vn 0.000000 0.887500 -0.460700
vn 0.000000 0.889100 -0.457600
vn -1.000000 -0.000900 0.000400
vn 0.000000 0.891400 -0.453300
vn 0.000000 0.891300 -0.453400
vn 0.002900 0.885300 -0.465000
vn 0.999300 -0.034200 0.018000
vn 0.998800 -0.048300 0.000000
vn -0.000000 0.002400 1.000000
vn -0.007900 0.000000 -1.000000
vn 0.001900 0.000900 -1.000000
vn -0.994900 -0.035200 -0.094900
vn -0.997500 -0.070200 -0.000000
vn 0.003800 0.001800 1.000000
vn -0.992400 -0.046600 0.114100
vn 0.999900 -0.009700 0.004600
vn -0.005000 -0.900200 0.435400
vn -0.033400 -0.902100 -0.430200
vn -1.000000 -0.000200 -0.000000
vn -1.000000 -0.000900 -0.000400
vn 1.000000 -0.000100 -0.000500
vn -0.999900 -0.010800 0.000000
vn -0.007200 -0.910200 -0.414200
vn -0.008300 -0.901300 0.433100
vn 0.006600 -0.901300 0.433100
vn 0.071400 -0.900300 -0.429300
vn 1.000000 0.000600 0.000300
vn 0.003200 0.885300 -0.465000
vn 1.000000 0.000600 -0.000300
vn -1.000000 -0.000600 0.000300
vn 0.000000 0.889100 -0.457800
usemtl House_material
s off
f 6/1/1 2/2/1 1/3/1
f 7/4/2 3/5/2 2/6/2
f 8/7/3 4/8/3 3/9/3
f 5/10/4 1/3/4 4/8/4
f 7/4/5 6/11/5 5/10/5
f 15/12/3 14/13/3 16/14/3
f 9/15/4 22/16/4 10/17/4
f 23/18/2 25/19/2 26/20/2
f 9/15/6 14/21/6 24/22/6
f 23/23/1 18/24/1 30/25/1
f 28/26/3 33/27/3 34/28/3
f 25/29/5 34/30/5 35/31/5
f 30/32/4 34/28/4 33/27/4
f 27/33/7 36/34/7 33/35/7
f 26/36/1 35/37/1 36/38/1
f 31/39/7 33/35/7 39/40/7
f 29/41/5 37/42/5 34/30/5
f 39/40/7 33/35/7 36/34/7
f 13/43/4 36/38/4 35/37/4
f 22/44/5 38/45/5 37/42/5
f 11/46/5 16/47/5 35/31/5
f 32/48/2 39/49/2 37/50/2
f 20/51/7 39/40/7 40/52/7
f 12/53/7 40/52/7 36/34/7
f 19/54/3 37/50/3 39/49/3
f 21/55/1 40/56/1 38/57/1
f 11/58/2 38/57/2 40/56/2
f 27/59/2 28/60/2 24/61/2
f 25/19/2 24/61/2 28/60/2
f 15/12/2 27/59/2 14/13/2
f 14/13/3 9/15/3 12/62/3
f 9/15/3 10/17/3 11/63/3
f 17/64/4 20/65/4 21/66/4
f 19/67/4 20/65/4 17/64/4
f 17/64/1 32/68/1 29/69/1
f 24/70/1 31/71/1 32/68/1
f 37/42/5 38/45/5 35/31/5
f 47/12/8 46/13/8 48/14/8
f 41/15/9 54/16/9 42/17/9
f 55/18/10 57/19/10 58/20/10
f 41/15/11 46/21/11 56/22/11
f 55/23/12 50/24/12 62/25/12
f 60/26/3 65/27/3 66/28/3
f 57/29/5 66/30/5 67/31/5
f 62/32/4 66/28/4 65/27/4
f 59/33/7 68/34/7 65/35/7
f 58/36/1 67/37/1 68/38/1
f 63/39/7 65/35/7 71/40/7
f 62/72/5 61/41/5 69/42/5
f 71/40/7 65/35/7 68/34/7
f 45/43/4 68/38/4 67/37/4
f 54/44/5 70/45/5 69/42/5
f 43/46/5 48/47/5 67/31/5
f 64/48/2 71/49/2 69/50/2
f 52/51/7 71/40/7 72/52/7
f 44/53/7 72/52/7 68/34/7
f 51/54/3 69/50/3 71/49/3
f 53/55/1 72/56/1 70/57/1
f 43/58/2 70/57/2 72/56/2
f 59/59/2 60/60/2 56/61/2
f 57/19/2 56/61/2 60/60/2
f 47/12/13 59/59/13 46/13/13
f 46/13/3 41/15/3 44/62/3
f 41/15/14 42/17/14 43/63/14
f 49/64/4 52/65/4 53/66/4
f 51/67/4 52/65/4 49/64/4
f 49/64/1 64/68/1 61/69/1
f 56/70/1 63/71/1 64/68/1
f 69/42/5 70/45/5 67/31/5
f 113/73/15 87/74/15 129/75/15
f 100/76/16 120/77/16 119/78/16
f 111/79/17 85/80/17 127/81/17
f 132/82/18 129/75/18 87/74/18
f 84/83/19 96/84/19 132/82/19
f 103/85/3 83/86/3 77/87/3
f 96/88/20 84/89/20 78/90/20
f 174/91/21 175/92/21 90/93/21
f 92/94/3 94/95/3 118/96/3
f 103/97/22 104/98/22 136/99/22
f 78/90/1 84/89/1 98/100/1
f 74/101/3 80/102/3 112/103/3
f 102/104/2 101/105/2 100/106/2
f 80/107/4 74/108/4 124/109/4
f 77/87/3 83/86/3 105/110/3
f 111/111/2 107/112/2 121/113/2
f 118/96/4 113/114/4 109/115/4
f 112/116/4 117/117/4 115/118/4
f 120/77/2 110/119/2 114/120/2
f 75/121/1 109/122/1 113/123/1
f 73/124/3 107/125/3 111/126/3
f 101/127/23 102/128/23 122/129/23
f 91/130/1 115/118/1 117/117/1
f 76/131/1 82/132/1 114/133/1
f 138/134/3 137/135/3 128/136/3
f 133/137/1 134/138/1 130/139/1
f 129/140/24 132/141/24 131/142/24
f 127/143/3 135/144/3 136/99/3
f 112/145/25 80/146/25 128/147/25
f 105/148/26 137/135/26 138/134/26
f 81/149/4 129/150/4 125/151/4
f 73/152/2 79/153/2 127/154/2
f 96/155/27 95/156/27 131/142/27
f 76/157/2 126/158/2 130/159/2
f 98/160/28 134/138/28 133/137/28
f 93/161/4 141/162/4 145/163/4
f 143/164/4 144/165/4 140/166/4
f 144/167/3 148/168/3 150/169/3
f 141/162/4 142/170/4 146/171/4
f 146/171/4 142/170/4 94/172/4
f 149/173/4 150/169/4 148/168/4
f 145/174/1 149/173/1 147/175/1
f 145/176/7 146/177/7 150/169/7
f 144/178/5 143/179/5 147/175/5
f 85/180/29 172/181/29 178/182/29
f 83/183/30 103/184/30 135/185/30
f 135/185/31 127/81/31 85/80/31
f 119/186/32 122/187/32 102/188/32
f 130/189/33 88/190/33 114/191/33
f 85/80/34 111/79/34 122/187/34
f 88/190/35 130/189/35 134/192/35
f 84/83/30 90/193/30 134/192/30
f 141/194/25 93/195/25 117/196/25
f 118/197/36 117/196/36 86/198/36
f 86/198/37 128/147/37 137/199/37
f 83/183/38 89/200/38 137/199/38
f 92/201/4 140/166/4 144/165/4
f 92/201/4 146/171/4 94/172/4
f 92/201/4 144/165/4 146/171/4
f 118/197/25 94/202/25 142/203/25
f 118/197/25 141/194/25 117/196/25
f 118/197/25 142/203/25 141/194/25
f 143/164/4 139/204/4 91/205/4
f 145/163/4 143/164/4 91/205/4
f 91/205/4 93/161/4 145/163/4
f 164/206/1 156/207/1 155/208/1
f 166/209/3 158/210/3 157/211/3
f 163/212/5 169/213/5 170/214/5
f 161/215/5 160/216/5 159/217/5
f 160/216/1 164/206/1 163/218/1
f 162/219/3 166/209/3 165/220/3
f 159/217/4 163/212/4 166/221/4
f 169/213/4 167/222/4 168/223/4
f 155/208/1 167/224/1 169/225/1
f 166/209/3 170/226/3 168/227/3
f 173/180/39 174/228/39 87/229/39
f 174/230/40 173/231/40 171/232/40
f 173/233/41 86/234/41 89/93/41
f 177/235/42 178/236/42 47/237/42
f 175/238/43 151/239/43 152/240/43
f 89/93/44 85/241/44 178/91/44
f 55/242/45 172/243/45 154/244/45
f 172/243/46 176/245/46 152/240/46
f 172/243/47 55/242/47 47/237/47
f 176/233/48 88/234/48 90/93/48
f 171/232/49 153/246/49 151/239/49
f 42/247/50 50/248/50 171/232/50
f 171/232/50 50/248/50 153/246/50
f 50/248/51 55/242/51 154/244/51
f 5/10/1 6/1/1 1/3/1
f 6/11/2 7/4/2 2/6/2
f 7/249/3 8/7/3 3/9/3
f 8/7/4 5/10/4 4/8/4
f 8/7/5 7/4/5 5/10/5
f 16/14/3 10/17/3 15/12/3
f 14/13/3 13/250/3 16/14/3
f 16/14/3 11/63/3 10/17/3
f 22/16/4 18/24/4 10/17/4
f 22/16/4 9/15/4 21/66/4
f 22/16/4 19/67/4 18/24/4
f 26/20/2 27/59/2 15/12/2
f 23/18/2 24/61/2 25/19/2
f 26/20/2 15/12/2 23/18/2
f 17/64/6 9/15/6 24/22/6
f 30/25/1 24/70/1 23/23/1
f 18/24/1 29/69/1 30/25/1
f 30/25/1 31/71/1 24/70/1
f 25/251/3 28/26/3 34/28/3
f 26/252/5 25/29/5 35/31/5
f 31/253/4 30/32/4 33/27/4
f 28/254/7 27/33/7 33/35/7
f 27/255/1 26/36/1 36/38/1
f 32/256/7 31/39/7 39/40/7
f 30/72/5 29/41/5 34/30/5
f 40/52/7 39/40/7 36/34/7
f 16/257/4 13/43/4 35/37/4
f 19/258/5 22/44/5 37/42/5
f 38/45/5 11/46/5 35/31/5
f 29/259/2 32/48/2 37/50/2
f 21/260/7 20/51/7 40/52/7
f 13/261/7 12/53/7 36/34/7
f 20/262/3 19/54/3 39/49/3
f 22/263/1 21/55/1 38/57/1
f 12/264/2 11/58/2 40/56/2
f 14/13/2 27/59/2 24/61/2
f 13/250/3 14/13/3 12/62/3
f 12/62/3 9/15/3 11/63/3
f 9/15/4 17/64/4 21/66/4
f 18/24/4 19/67/4 17/64/4
f 18/24/1 17/64/1 29/69/1
f 17/64/1 24/70/1 32/68/1
f 34/30/5 37/42/5 35/31/5
f 48/14/52 42/17/52 47/12/52
f 46/13/3 45/250/3 48/14/3
f 48/14/53 43/63/53 42/17/53
f 54/16/54 50/24/54 42/17/54
f 54/16/4 41/15/4 53/66/4
f 54/16/54 51/67/54 50/24/54
f 58/20/55 59/59/55 47/12/55
f 55/18/56 56/61/56 57/19/56
f 58/20/10 47/12/10 55/18/10
f 49/64/11 41/15/11 56/22/11
f 62/25/57 56/70/57 55/23/57
f 50/24/58 61/69/58 62/25/58
f 62/25/1 63/71/1 56/70/1
f 57/251/3 60/26/3 66/28/3
f 58/252/5 57/29/5 67/31/5
f 63/253/4 62/32/4 65/27/4
f 60/254/7 59/33/7 65/35/7
f 59/255/1 58/36/1 68/38/1
f 64/256/7 63/39/7 71/40/7
f 66/30/5 62/72/5 69/42/5
f 72/52/7 71/40/7 68/34/7
f 48/257/4 45/43/4 67/37/4
f 51/258/5 54/44/5 69/42/5
f 70/45/5 43/46/5 67/31/5
f 61/259/2 64/48/2 69/50/2
f 53/260/7 52/51/7 72/52/7
f 45/261/7 44/53/7 68/34/7
f 52/262/3 51/54/3 71/49/3
f 54/263/1 53/55/1 70/57/1
f 44/264/2 43/58/2 72/56/2
f 46/13/2 59/59/2 56/61/2
f 45/250/3 46/13/3 44/62/3
f 44/62/3 41/15/3 43/63/3
f 41/15/4 49/64/4 53/66/4
f 50/24/59 51/67/59 49/64/59
f 50/24/60 49/64/60 61/69/60
f 49/64/1 56/70/1 64/68/1
f 66/30/5 69/42/5 67/31/5
f 81/265/25 113/73/25 129/75/25
f 99/266/61 100/76/61 119/78/61
f 79/267/62 111/79/62 127/81/62
f 90/193/63 132/82/63 87/74/63
f 90/193/19 84/83/19 132/82/19
f 104/268/3 103/85/3 77/87/3
f 95/269/64 96/88/64 78/90/64
f 87/241/65 174/91/65 90/93/65
f 116/270/3 92/94/3 118/96/3
f 135/144/22 103/97/22 136/99/22
f 97/271/1 78/90/1 98/100/1
f 108/272/3 74/101/3 112/103/3
f 99/273/2 102/104/2 100/106/2
f 128/274/4 80/107/4 124/109/4
f 106/275/3 77/87/3 105/110/3
f 122/129/2 111/111/2 121/113/2
f 116/270/4 118/96/4 109/115/4
f 108/276/4 112/116/4 115/118/4
f 119/78/2 120/77/2 114/120/2
f 81/277/1 75/121/1 113/123/1
f 79/278/66 73/124/66 111/126/66
f 121/113/67 101/127/67 122/129/67
f 93/279/1 91/130/1 117/117/1
f 110/280/1 76/131/1 114/133/1
f 124/281/3 138/134/3 128/136/3
f 126/282/1 133/137/1 130/139/1
f 125/283/1 129/140/1 131/142/1
f 123/284/3 127/143/3 136/99/3
f 86/198/68 112/145/68 128/147/68
f 106/285/26 105/148/26 138/134/26
f 75/286/4 81/149/4 125/151/4
f 123/287/2 73/152/2 127/154/2
f 132/141/27 96/155/27 131/142/27
f 82/288/2 76/157/2 130/159/2
f 97/289/28 98/160/28 133/137/28
f 139/204/4 143/164/4 140/166/4
f 146/290/3 144/167/3 150/169/3
f 145/163/4 141/162/4 146/171/4
f 147/175/4 149/173/4 148/168/4
f 143/291/1 145/174/1 147/175/1
f 149/173/7 145/176/7 150/169/7
f 148/168/5 144/178/5 147/175/5
f 172/181/29 85/180/29 88/228/29
f 88/228/29 176/229/29 172/181/29
f 89/200/30 83/183/30 135/185/30
f 89/200/69 135/185/69 85/80/69
f 99/292/32 119/186/32 102/188/32
f 82/293/32 130/189/32 114/191/32
f 119/186/34 88/190/34 85/80/34
f 85/80/34 122/187/34 119/186/34
f 119/186/34 114/191/34 88/190/34
f 90/193/70 88/190/70 134/192/70
f 98/294/30 84/83/30 134/192/30
f 118/197/36 87/74/36 113/73/36
f 117/196/36 112/145/36 86/198/36
f 86/198/36 87/74/36 118/197/36
f 89/200/71 86/198/71 137/199/71
f 105/295/38 83/183/38 137/199/38
f 163/218/1 164/206/1 155/208/1
f 165/220/3 166/209/3 157/211/3
f 166/221/5 163/212/5 170/214/5
f 162/219/5 161/215/5 159/217/5
f 159/217/1 160/216/1 163/218/1
f 161/215/3 162/219/3 165/220/3
f 162/219/4 159/217/4 166/221/4
f 170/214/4 169/213/4 168/223/4
f 163/218/1 155/208/1 169/225/1
f 158/210/3 166/209/3 168/227/3
f 86/182/39 173/180/39 87/229/39
f 171/232/40 175/238/40 174/230/40
f 173/231/40 177/235/40 171/232/40
f 177/92/72 173/233/72 89/93/72
f 42/247/73 177/235/73 47/237/73
f 176/245/43 175/238/43 152/240/43
f 177/92/74 89/93/74 178/91/74
f 154/244/46 172/243/46 152/240/46
f 178/236/47 172/243/47 47/237/47
f 175/92/75 176/233/75 90/93/75
f 175/238/49 171/232/49 151/239/49
f 177/235/50 42/247/50 171/232/50
f 153/246/76 50/248/76 154/244/76
