# Blender v2.72 (sub 0) OBJ File: 'house.blend'
# www.blender.org
mtllib house.mtl
o BaseLowPoly_LowPoly.001
v -3.801330 0.004681 2.210444
v -3.801330 0.004681 -2.245037
v 4.154069 0.004681 -2.245037
v 4.154069 0.004681 2.210444
v -3.801330 0.464681 2.210444
v -3.801330 0.464681 -2.245037
v 4.154069 0.464681 -2.245037
v 4.154069 0.464681 2.210444
vt 0.026828 0.936458
vt 0.001198 0.936458
vt 0.001198 0.688205
vt 0.275080 0.244944
vt 0.300711 0.244944
vt 0.300711 0.688205
vt 0.026828 0.244944
vt 0.001198 0.244944
vt 0.001198 -0.003310
vt 0.026828 0.688205
vt 0.275080 0.688205
vt 0.026828 -0.003310
vn -1.000000 0.000000 0.000000
vn 0.000000 0.000000 -1.000000
vn 1.000000 0.000000 0.000000
vn 0.000000 0.000000 1.000000
vn 0.000000 1.000000 0.000000
usemtl House_material
s off
f 6/1/1 2/2/1 1/3/1
f 7/4/2 3/5/2 2/6/2
f 8/7/3 4/8/3 3/9/3
f 5/10/4 1/3/4 4/8/4
f 7/4/5 6/11/5 5/10/5
f 5/10/1 6/1/1 1/3/1
f 6/11/2 7/4/2 2/6/2
f 7/12/3 8/7/3 3/9/3
f 8/7/4 5/10/4 4/8/4
f 8/7/5 7/4/5 5/10/5
o House_LowPoly
v 4.076248 0.472219 -2.178356
v 4.076248 0.472219 2.112799
v -3.741651 0.472219 2.112798
v -3.741649 0.472219 -2.178356
v 4.076248 0.472219 -0.032779
v -3.741650 0.472219 -0.032779
v 4.076250 2.883142 -2.178355
v 4.076246 2.883142 2.112799
v -3.741652 2.883142 2.112798
v -3.741650 2.883142 -2.178356
v 4.076248 3.913255 -0.032778
v -3.741651 3.913255 -0.032779
v 4.398487 2.900293 -2.543415
v 4.398483 2.916076 2.464002
v -4.086443 2.916076 2.464001
v -4.086442 2.900293 -2.543416
v 4.398485 4.192997 -0.032778
v -4.086443 4.192997 -0.032779
v 4.398487 2.706913 -2.543415
v 4.398483 2.722696 2.464002
v -4.086443 2.722696 2.464001
v -4.086442 2.706913 -2.543416
v 4.398485 3.913255 -0.032778
v -4.086443 3.913255 -0.032779
v 3.869748 0.472219 2.112799
v -3.535149 0.472219 2.112798
v 3.869744 2.883142 2.112799
v -3.535152 2.883142 2.112798
v -3.741651 0.472219 1.895228
v -3.742148 2.984391 1.907320
v -3.741649 0.472219 -1.951281
v -3.741650 2.981137 -1.974245
v -3.505259 2.883142 -2.178356
v -3.528610 0.472219 -2.178356
v 3.851569 0.472219 -2.178356
v 3.826944 2.883142 -2.178355
v 4.076250 3.002182 -1.930411
v 4.076248 0.472219 -1.893728
v 4.076246 2.990674 1.888824
v 4.076248 0.472219 1.869855
v 4.076248 0.472219 -2.452377
v 4.076248 0.472219 2.386820
v -3.741651 0.472219 2.386820
v -3.741649 0.472219 -2.452378
v 4.076250 2.751968 -2.452377
v 4.076246 2.760366 2.386821
v -3.741652 2.760366 2.386819
v -3.741650 2.751968 -2.452377
v 3.869748 0.472219 2.386820
v -3.535149 0.472219 2.386820
v 3.869744 2.760366 2.386820
v -3.535152 2.760366 2.386820
v -3.505259 2.751968 -2.452377
v -3.528610 0.472219 -2.452378
v 3.851569 0.472219 -2.452377
v 3.826944 2.751968 -2.452377
v 4.319229 0.472219 -2.178356
v 4.319229 0.472219 2.112799
v -3.984632 0.472219 2.112798
v -3.984629 0.472219 -2.178356
v 4.319231 2.883142 -2.178355
v 4.319226 2.883142 2.112799
v -3.984632 2.883142 2.112798
v -3.984630 2.883142 -2.178356
v -3.984632 0.472219 1.895228
v -3.985129 2.984391 1.907320
v -3.984629 0.472219 -1.951281
v -3.984630 2.981137 -1.974245
v 4.319230 3.002182 -1.930411
v 4.319229 0.472219 -1.893728
v 4.319227 2.990674 1.888824
v 4.319229 0.472219 1.869855
v 0.741402 0.472219 2.112799
v -0.406806 0.472219 2.112798
v 0.741400 2.883142 2.112799
v -0.406807 2.883142 2.112799
v 0.741402 0.568183 2.112799
v -0.406806 0.568183 2.112799
v 0.741401 2.631181 2.112799
v -0.406807 2.631181 2.112799
v 0.741402 0.568183 1.978167
v -0.406806 0.568183 1.978166
v 0.741401 2.631181 1.978167
v -0.406806 2.631181 1.978167
v -2.167675 4.590449 -0.832135
v -2.167675 4.582160 -1.334262
v -2.167675 3.781415 -0.832135
v -2.167675 3.522874 -1.334262
v 0.071412 3.775215 -0.844176
v 0.071412 3.516674 -1.346303
v 0.674473 3.775215 -0.844176
v 0.674473 3.516674 -1.346303
v -0.772673 4.192997 -0.032807
v -1.500903 3.781415 -0.832135
v -1.500903 3.522874 -1.334262
v 0.071412 4.584250 -0.844176
v 0.071412 4.575960 -1.346303
v 0.674473 4.584250 -0.844176
v 0.674473 4.575960 -1.346303
v -1.500903 4.590449 -0.832135
v -1.500903 4.582160 -1.334262
v -0.702097 2.900293 -2.543415
v -0.554005 0.036286 2.907384
v -0.554005 0.036286 2.118037
v 0.870755 0.036286 2.118037
v 0.870755 0.036286 2.907384
v -0.554005 0.496286 2.907384
v -0.554005 0.496286 2.118037
v 0.870755 0.496286 2.118037
v 0.870755 0.496286 2.907384
v -0.554005 0.266286 2.907384
v -0.554005 0.266286 2.118037
v 0.870755 0.266286 2.118037
v 0.870755 0.266286 2.907384
v -0.554005 0.036286 3.229879
v 0.870755 0.036286 3.229879
v -0.554005 0.266286 3.229879
v 0.870755 0.266286 3.229879
vt 0.962988 0.526881
vt 0.942404 0.520914
vt 0.942405 0.506673
vt 0.551813 0.987016
vt 0.553190 0.852685
vt 0.568457 0.852841
vt 0.669504 0.029581
vt 0.690900 0.034226
vt 0.690900 0.048467
vt 0.816652 0.526881
vt 0.930361 0.520943
vt 0.816652 0.506673
vt 0.930361 0.506702
vt 0.908431 0.569665
vt 0.910475 0.710631
vt 0.804743 0.761394
vt 0.913192 0.780812
vt 0.913791 0.920786
vt 0.805664 0.972483
vt 0.468018 0.617646
vt 0.328515 0.546060
vt 0.328515 0.535286
vt 0.973033 0.510304
vt 0.973033 0.037550
vt 0.983809 0.037550
vt 0.329136 0.515883
vt 0.404159 0.308387
vt 0.435628 0.308387
vt 0.607521 0.535286
vt 0.607521 0.546060
vt 0.486477 0.227755
vt 0.486478 0.043117
vt 0.642732 0.043117
vt 0.065451 0.831582
vt 0.050183 0.824742
vt 0.050183 0.697250
vt 0.958965 0.569798
vt 0.972503 0.569798
vt 0.972504 0.710778
vt 0.697516 0.920489
vt 0.698871 0.780697
vt 0.677708 0.703531
vt 0.662440 0.696691
vt 0.662440 0.569199
vt 0.102367 0.853190
vt 0.513578 0.853190
vt 0.512277 0.987523
vt 0.531861 0.698560
vt 0.545400 0.698560
vt 0.545400 0.832892
vt 0.697674 0.709989
vt 0.698731 0.569665
vt 0.036076 0.853987
vt 0.048595 0.854061
vt 0.049213 0.981091
vt 0.038677 0.824742
vt 0.038677 0.697250
vt 0.582126 0.698552
vt 0.582126 0.826044
vt 0.570620 0.826044
vt 0.567156 0.979865
vt 0.580327 0.852841
vt 0.930835 0.914890
vt 0.930835 0.780558
vt 0.946104 0.780558
vt 0.927770 0.703480
vt 0.927770 0.569147
vt 0.943038 0.569147
vt 0.064516 0.988325
vt 0.555352 0.832884
vt 0.555352 0.698552
vt 0.570620 0.698552
vt 0.682834 0.915573
vt 0.667566 0.908264
vt 0.667566 0.781240
vt 0.630690 0.707767
vt 0.618166 0.701869
vt 0.617154 0.567541
vt 0.642313 0.922588
vt 0.630891 0.917232
vt 0.629663 0.782905
vt 0.986455 0.782143
vt 0.985835 0.916474
vt 0.974360 0.922062
vt 0.988361 0.570028
vt 0.986413 0.704346
vt 0.962988 0.029581
vt 0.958465 0.048467
vt 0.942405 0.048467
vt 0.644229 0.707767
vt 0.630690 0.567439
vt 0.091097 0.832892
vt 0.077559 0.832892
vt 0.077559 0.698560
vt 0.087616 0.853745
vt 0.087616 0.988077
vt 0.074077 0.988077
vt 0.960795 0.782086
vt 0.974333 0.782087
vt 0.527488 0.852777
vt 0.541026 0.852777
vt 0.541026 0.987109
vt 0.655853 0.782789
vt 0.655852 0.922588
vt 0.518072 0.833348
vt 0.343765 0.833347
vt 0.343765 0.819309
vt 0.343765 0.699014
vt 0.343765 0.704361
vt 0.279788 0.704361
vt 0.848211 0.238267
vt 0.840710 0.238267
vt 0.840710 0.123320
vt 0.279788 0.833347
vt 0.279788 0.819309
vt 0.105483 0.833347
vt 0.776734 0.238267
vt 0.776734 0.123320
vt 0.769232 0.238267
vt 0.769232 0.123320
vt 0.840714 0.115834
vt 0.776733 0.245768
vt 0.848025 0.434110
vt 0.788986 0.434110
vt 0.788986 0.398773
vt 0.848103 0.398964
vt 0.789064 0.398964
vt 0.788601 0.370978
vt 0.436382 0.187179
vt 0.760532 0.370883
vt 0.788518 0.370883
vt 0.788518 0.335544
vt 0.329135 0.043117
vt 0.436382 0.150027
vt 0.435628 0.274786
vt 0.486478 0.515883
vt 0.760533 0.335554
vt 0.833615 0.370787
vt 0.788530 0.370787
vt 0.788530 0.335449
vt 0.848103 0.434301
vt 0.789064 0.434301
vt 0.833693 0.370978
vt 0.788602 0.335641
vt 0.848025 0.398773
vt 0.848025 0.307464
vt 0.833615 0.335450
vt 0.848103 0.307655
vt 0.833693 0.335641
vt 0.705432 0.048467
vt 0.705432 0.034226
vt 0.816652 0.029581
vt 0.674840 0.492818
vt 0.674840 0.063079
vt 0.690900 0.063079
vt 0.690900 0.506673
vt 0.690900 0.520914
vt 0.669504 0.526881
vt 0.674840 0.048467
vt 0.702863 0.520914
vt 0.702863 0.506673
vt 0.942404 0.243922
vt 0.942404 0.060570
vt 0.958465 0.060570
vt 0.942405 0.034226
vt 0.929277 0.034226
vt 0.929277 0.048467
vt 0.105484 0.699015
vt 0.279788 0.699014
vt 0.958465 0.494570
vt 0.942405 0.494570
vt 0.942404 0.311218
vt 0.518072 0.699014
vt 0.200419 0.062106
vt 0.213234 0.062106
vt 0.213234 0.106087
vt 0.095364 0.106087
vt 0.082549 0.106087
vt 0.082549 0.062106
vt 0.187603 0.118902
vt 0.187603 0.136871
vt 0.108218 0.136871
vt 0.108218 0.062106
vt 0.187603 0.062106
vt 0.187603 0.106087
vt 0.200419 0.106087
vt 0.108179 0.106087
vt 0.095364 0.062106
vt 0.108218 0.118902
vt 0.187603 0.149686
vt 0.108218 0.149686
vt 0.213234 0.124056
vt 0.200419 0.124056
vt 0.095364 0.124056
vt 0.082549 0.124056
vt 0.983603 0.225940
vt 0.329136 0.231687
vt 0.404159 0.274786
vt 0.404914 0.150027
vt 0.404914 0.187179
vt 0.642732 0.515883
vt 0.958465 0.506673
vt 0.804743 0.569665
vt 0.805767 0.780754
vt 0.468018 0.602060
vt 0.983808 0.510304
vt 0.065451 0.697250
vt 0.958965 0.710778
vt 0.677708 0.569199
vt 0.103739 0.987523
vt 0.531861 0.832892
vt 0.035322 0.981008
vt 0.580327 0.979865
vt 0.946103 0.908050
vt 0.943038 0.696171
vt 0.063862 0.853987
vt 0.682834 0.781240
vt 0.642314 0.782789
vt 0.644229 0.567439
vt 0.091097 0.698560
vt 0.074077 0.853745
vt 0.960822 0.922062
vt 0.527488 0.987109
vt 0.848211 0.123320
vt 0.776737 0.115803
vt 0.840710 0.245768
vt 0.760532 0.335543
vt 0.788526 0.335555
vt 0.788986 0.307464
vt 0.789064 0.307655
vt 0.816652 0.048467
vt 0.690900 0.492818
vt 0.674840 0.506673
vn 0.000000 -0.909600 -0.415500
vn 1.000000 -0.009700 0.000000
vn 0.000000 -0.900600 0.434700
vn 0.244100 -0.869600 -0.429100
vn 0.000000 -0.902000 -0.431800
vn 1.000000 -0.000000 0.000000
vn -1.000000 -0.000200 -0.000400
vn -0.000000 0.000000 1.000000
vn -1.000000 0.000000 -0.000000
vn -0.000000 0.889100 -0.457800
vn 0.000000 0.890300 0.455300
vn 0.000000 0.014500 0.999900
vn 0.000000 0.000000 -1.000000
vn -0.999900 -0.010800 0.005200
vn -1.000000 -0.000000 0.002400
vn -0.008700 -0.912600 -0.408900
vn 0.000000 0.007500 -1.000000
vn 0.000000 0.004800 -1.000000
vn 0.000000 0.009200 1.000000
vn 0.000000 -1.000000 0.000000
vn -0.000000 1.000000 0.000000
vn 0.000000 0.999900 -0.016500
vn 0.000000 -0.901500 0.432800
vn -0.000000 -0.902000 0.431800
vn 0.000000 -0.896200 0.443600
vn 0.000000 -0.912600 -0.408900
vn 0.000000 -0.898700 -0.438600
vn -0.000000 -0.901500 -0.432800
vn 0.008200 -0.912600 -0.408900
vn 0.999900 -0.010200 0.004900
vn -0.004100 -0.902000 0.431800
vn -0.062100 -0.900900 -0.429600
vn -0.999900 -0.010200 0.000000
vn -1.000000 -0.000200 0.000000
vn -0.009300 -0.901300 0.433100
vn 0.003900 -0.902000 0.431800
vn 0.007300 -0.901300 0.433100
vn 0.079700 -0.899800 -0.429000
usemtl House_material_normals_house
s off
f 29/13/6 71/14/6 17/15/6
f 41/16/7 42/17/7 62/18/7
f 27/19/8 69/20/8 15/21/8
f 32/22/9 74/23/9 71/14/9
f 32/22/10 20/24/10 38/25/10
f 46/26/11 45/27/11 19/28/11
f 37/29/12 38/30/12 20/31/12
f 25/32/11 22/33/11 28/34/11
f 22/35/13 23/36/13 29/37/13
f 26/32/14 24/33/14 30/34/14
f 21/38/15 100/39/15 99/40/15
f 29/41/14 23/42/14 26/32/14
f 101/43/16 26/44/16 23/45/16
f 36/46/11 60/47/11 58/48/11
f 46/49/17 78/50/17 77/51/17
f 20/31/14 40/52/14 39/53/14
f 16/54/11 54/55/11 50/56/11
f 43/57/18 42/58/18 41/59/18
f 10/60/13 66/61/13 70/62/13
f 19/28/11 47/63/11 48/64/11
f 49/65/18 63/66/18 64/67/18
f 60/47/13 55/68/13 51/69/13
f 50/70/13 54/71/13 59/72/13
f 61/73/18 62/18/18 52/74/18
f 17/75/14 11/76/14 51/77/14
f 15/78/11 9/79/11 49/80/11
f 44/81/19 64/67/19 63/66/19
f 35/82/14 33/83/14 57/84/14
f 18/85/14 56/86/14 52/87/14
f 79/88/11 70/89/11 66/90/11
f 76/91/14 72/92/14 68/93/14
f 67/94/20 71/95/20 74/96/20
f 65/97/11 69/98/11 77/51/11
f 28/99/21 54/100/21 16/101/21
f 47/102/22 79/88/22 80/103/22
f 17/104/13 71/105/13 67/106/13
f 9/107/18 15/108/18 69/109/18
f 37/110/23 73/111/23 74/96/23
f 12/112/18 68/113/18 72/114/18
f 39/115/24 40/116/24 76/91/24
f 35/117/13 83/118/13 87/119/13
f 81/120/13 85/121/13 86/122/13
f 86/123/11 90/124/11 92/125/11
f 87/119/13 83/118/13 84/126/13
f 88/127/13 84/126/13 36/128/13
f 89/129/13 91/130/13 92/125/13
f 85/131/14 87/132/14 91/130/14
f 88/133/25 92/125/25 91/130/25
f 85/134/26 89/129/26 90/124/26
f 98/135/18 105/136/18 107/137/18
f 103/138/11 109/139/11 108/140/11
f 26/44/15 101/43/15 102/141/15
f 27/41/11 21/42/11 25/32/11
f 106/142/27 107/143/27 105/144/27
f 24/145/15 26/44/15 95/146/15
f 97/147/15 101/43/15 25/148/15
f 93/149/27 108/142/27 109/143/27
f 99/150/13 106/151/13 104/152/13
f 96/153/18 94/154/18 109/139/18
f 102/155/13 108/140/13 93/156/13
f 100/157/11 107/137/11 106/151/11
f 98/158/14 97/159/14 104/152/14
f 96/160/14 95/161/14 93/156/14
f 45/162/28 77/163/28 31/164/28
f 31/164/28 77/163/28 69/20/28
f 61/165/29 64/166/29 44/167/29
f 18/168/8 72/169/8 30/170/8
f 27/19/30 53/171/30 64/166/30
f 72/169/28 76/172/28 32/22/28
f 32/22/28 76/172/28 40/173/28
f 83/174/31 35/175/31 59/176/31
f 59/176/32 54/100/32 28/99/32
f 70/177/33 79/178/33 31/164/33
f 31/164/33 79/178/33 47/179/33
f 34/180/13 82/181/13 86/122/13
f 34/180/13 88/127/13 36/128/13
f 34/180/13 86/122/13 88/127/13
f 60/182/31 36/183/31 84/184/31
f 60/182/31 83/174/31 59/176/31
f 60/182/31 84/184/31 83/174/31
f 85/121/13 81/120/13 33/185/13
f 87/119/13 85/121/13 33/185/13
f 33/185/13 35/117/13 87/119/13
f 120/186/14 112/187/14 111/188/14
f 122/189/11 114/190/11 113/191/11
f 119/192/26 125/193/26 126/194/26
f 117/195/26 116/196/26 115/197/26
f 116/196/14 120/186/14 119/198/14
f 118/199/11 122/189/11 121/200/11
f 115/197/13 119/192/13 122/201/13
f 125/193/13 123/202/13 124/203/13
f 111/188/14 123/204/14 125/205/14
f 122/189/11 126/206/11 124/207/11
f 24/37/18 110/208/18 30/36/18
f 21/38/15 110/209/15 98/210/15
f 24/145/15 96/211/15 103/212/15
f 102/141/15 101/43/15 97/147/15
f 101/43/16 23/45/16 22/213/16
f 25/148/16 101/43/16 22/213/16
f 55/214/34 29/13/34 17/15/34
f 61/73/35 41/16/35 62/18/35
f 53/171/36 27/19/36 15/21/36
f 29/13/37 32/22/37 71/14/37
f 74/23/10 32/22/10 38/25/10
f 13/215/11 46/26/11 19/28/11
f 14/216/14 37/29/14 20/31/14
f 31/217/11 25/32/11 28/34/11
f 28/218/13 22/35/13 29/37/13
f 32/217/14 26/32/14 30/34/14
f 25/148/15 21/38/15 99/40/15
f 32/217/14 29/41/14 26/32/14
f 34/219/11 36/46/11 58/48/11
f 45/220/17 46/49/17 77/51/17
f 14/216/14 20/31/14 39/53/14
f 10/221/11 16/54/11 50/56/11
f 44/222/18 43/57/18 41/59/18
f 16/223/13 10/60/13 70/62/13
f 13/215/11 19/28/11 48/64/11
f 53/224/18 49/65/18 64/67/18
f 58/48/13 60/47/13 51/69/13
f 57/84/13 50/70/13 59/72/13
f 56/225/18 61/73/18 52/74/18
f 55/226/14 17/75/14 51/77/14
f 53/227/11 15/78/11 49/80/11
f 43/228/38 44/81/38 63/66/38
f 59/72/14 35/82/14 57/84/14
f 12/229/14 18/85/14 52/87/14
f 80/103/11 79/88/11 66/90/11
f 75/230/14 76/91/14 68/93/14
f 73/111/39 67/94/39 74/96/39
f 78/50/11 65/97/11 77/51/11
f 70/177/6 28/99/6 16/101/6
f 48/231/22 47/102/22 80/103/22
f 11/232/13 17/104/13 67/106/13
f 65/233/18 9/107/18 69/109/18
f 38/234/23 37/110/23 74/96/23
f 18/235/18 12/112/18 72/114/18
f 75/230/24 39/115/24 76/91/24
f 82/181/13 81/120/13 86/122/13
f 88/236/11 86/123/11 92/125/11
f 88/127/13 87/119/13 84/126/13
f 90/124/13 89/129/13 92/125/13
f 89/129/14 85/131/14 91/130/14
f 87/237/25 88/133/25 91/130/25
f 86/238/26 85/134/26 90/124/26
f 100/157/18 98/135/18 107/137/18
f 102/155/11 103/138/11 108/140/11
f 95/146/15 26/44/15 102/141/15
f 31/217/11 27/41/11 25/32/11
f 104/239/27 106/142/27 105/144/27
f 96/211/15 24/145/15 95/146/15
f 99/40/15 97/147/15 25/148/15
f 94/240/27 93/149/27 109/143/27
f 97/159/13 99/150/13 104/152/13
f 103/138/18 96/153/18 109/139/18
f 95/161/13 102/155/13 93/156/13
f 99/150/11 100/157/11 106/151/11
f 105/241/14 98/158/14 104/152/14
f 94/242/14 96/160/14 93/156/14
f 19/243/28 45/162/28 31/164/28
f 27/19/40 31/164/40 69/20/40
f 41/244/29 61/165/29 44/167/29
f 56/245/41 18/168/41 30/170/41
f 27/19/30 61/165/30 30/170/30
f 61/165/30 27/19/30 64/166/30
f 20/24/28 32/22/28 40/173/28
f 61/165/30 56/245/30 30/170/30
f 30/170/42 72/169/42 32/22/42
f 55/214/32 60/182/32 29/13/32
f 28/99/43 70/177/43 31/164/43
f 19/243/33 31/164/33 47/179/33
f 60/182/32 59/176/32 28/99/32
f 60/182/32 28/99/32 29/13/32
f 119/198/14 120/186/14 111/188/14
f 121/200/11 122/189/11 113/191/11
f 122/201/26 119/192/26 126/194/26
f 118/199/26 117/195/26 115/197/26
f 115/197/14 116/196/14 119/198/14
f 117/195/11 118/199/11 121/200/11
f 118/199/13 115/197/13 122/201/13
f 126/194/13 125/193/13 124/203/13
f 119/198/14 111/188/14 125/205/14
f 114/190/11 122/189/11 124/207/11
f 21/218/18 27/35/18 110/208/18
f 100/39/15 21/38/15 98/210/15
f 110/208/18 27/35/18 30/36/18
f 110/209/15 24/145/15 103/212/15
f 110/209/15 103/212/15 98/210/15
f 102/141/15 97/147/15 103/212/15
f 103/212/15 97/147/15 98/210/15
